# Exported by Open CASCADE Technology [dev.opencascade.org]
#  Vertices: 220
#     Faces: 284
# Author:
# Originating system: SolidWorks 2022
# Organization:
# Comments: STEP AP203
mtllib kogeto-p2.mtl
g kogeto-p2
usemtl Material_2
v -0.000000 0.014000 -0.011904
v -0.002067 0.014000 -0.011724
v -0.004072 0.014000 -0.011186
v -0.005952 0.014000 -0.010310
v -0.007652 0.014000 -0.009119
v -0.009119 0.014000 -0.007652
v -0.010310 0.014000 -0.005952
v -0.011186 0.014000 -0.004072
v -0.011724 0.014000 -0.002067
v -0.011904 0.014000 -0.000000
v -0.011724 0.014000 0.002067
v -0.011186 0.014000 0.004072
v -0.010310 0.014000 0.005952
v -0.009119 0.014000 0.007652
v -0.007652 0.014000 0.009119
v -0.005952 0.014000 0.010310
v -0.004072 0.014000 0.011186
v -0.002067 0.014000 0.011724
v 0.000000 0.014000 0.011904
v -0.000000 0.000000 -0.017000
v -0.002952 0.000000 -0.016742
v -0.005814 0.000000 -0.015975
v -0.008500 0.000000 -0.014722
v -0.010927 0.000000 -0.013023
v -0.013023 0.000000 -0.010927
v -0.014722 0.000000 -0.008500
v -0.015975 0.000000 -0.005814
v -0.016742 0.000000 -0.002952
v -0.017000 0.000000 -0.000000
v -0.016742 0.000000 0.002952
v -0.015975 0.000000 0.005814
v -0.014722 0.000000 0.008500
v -0.013023 0.000000 0.010927
v -0.010927 0.000000 0.013023
v -0.008500 0.000000 0.014722
v -0.005814 0.000000 0.015975
v -0.002952 0.000000 0.016742
v 0.000000 0.000000 0.017000
v -0.003154 0.010500 0.012795
v -0.006124 0.010500 0.011669
v -0.003459 0.007000 0.014032
v -0.008739 0.010500 0.009864
v -0.006716 0.007000 0.012797
v -0.003764 0.003500 0.015269
v -0.010846 0.010500 0.007486
v -0.009584 0.007000 0.010818
v -0.007308 0.003500 0.013925
v -0.012322 0.010500 0.004673
v -0.011894 0.007000 0.008210
v -0.010428 0.003500 0.011771
v -0.013082 0.010500 0.001588
v -0.013513 0.007000 0.005125
v -0.012942 0.003500 0.008933
v -0.013082 0.010500 -0.001588
v -0.014347 0.007000 0.001742
v -0.014704 0.003500 0.005577
v -0.012322 0.010500 -0.004673
v -0.014347 0.007000 -0.001742
v -0.015611 0.003500 0.001896
v -0.010846 0.010500 -0.007486
v -0.013513 0.007000 -0.005125
v -0.015611 0.003500 -0.001896
v -0.008739 0.010500 -0.009864
v -0.011894 0.007000 -0.008210
v -0.014704 0.003500 -0.005577
v -0.006124 0.010500 -0.011669
v -0.009584 0.007000 -0.010818
v -0.012942 0.003500 -0.008933
v -0.003154 0.010500 -0.012795
v -0.006716 0.007000 -0.012797
v -0.010428 0.003500 -0.011771
v -0.003459 0.007000 -0.014032
v -0.007308 0.003500 -0.013925
v -0.003764 0.003500 -0.015269
vn -0.000000 0.342020 -0.939693
vn -0.163176 0.342020 -0.925417
vn -0.321394 0.342020 -0.883022
vn -0.469846 0.342020 -0.813798
vn -0.604023 0.342020 -0.719846
vn -0.719846 0.342020 -0.604023
vn -0.813798 0.342020 -0.469846
vn -0.883022 0.342020 -0.321394
vn -0.925417 0.342020 -0.163176
vn -0.939693 0.342020 -0.000000
vn -0.925417 0.342020 0.163176
vn -0.883022 0.342020 0.321394
vn -0.813798 0.342020 0.469846
vn -0.719846 0.342020 0.604023
vn -0.604023 0.342020 0.719846
vn -0.469846 0.342020 0.813798
vn -0.321394 0.342020 0.883022
vn -0.163176 0.342020 0.925417
vn 0.000000 0.342020 0.939693
vn -0.000000 0.342020 -0.939693
vn -0.163176 0.342020 -0.925417
vn -0.321394 0.342020 -0.883022
vn -0.469846 0.342020 -0.813798
vn -0.604023 0.342020 -0.719846
vn -0.719846 0.342020 -0.604023
vn -0.813798 0.342020 -0.469846
vn -0.883022 0.342020 -0.321394
vn -0.925417 0.342020 -0.163176
vn -0.939693 0.342020 -0.000000
vn -0.925417 0.342020 0.163176
vn -0.883022 0.342020 0.321394
vn -0.813798 0.342020 0.469846
vn -0.719846 0.342020 0.604023
vn -0.604023 0.342020 0.719846
vn -0.469846 0.342020 0.813798
vn -0.321394 0.342020 0.883022
vn -0.163176 0.342020 0.925417
vn 0.000000 0.342020 0.939693
vn -0.224883 0.342020 0.912387
vn -0.436697 0.342020 0.832057
vn -0.224883 0.342020 0.912387
vn -0.623131 0.342020 0.703370
vn -0.436697 0.342020 0.832057
vn -0.224883 0.342020 0.912387
vn -0.773352 0.342020 0.533806
vn -0.623131 0.342020 0.703370
vn -0.436697 0.342020 0.832057
vn -0.878628 0.342020 0.333220
vn -0.773352 0.342020 0.533806
vn -0.623131 0.342020 0.703370
vn -0.932841 0.342020 0.113267
vn -0.878628 0.342020 0.333220
vn -0.773352 0.342020 0.533806
vn -0.932841 0.342020 -0.113267
vn -0.932841 0.342020 0.113267
vn -0.878628 0.342020 0.333220
vn -0.878628 0.342020 -0.333220
vn -0.932841 0.342020 -0.113267
vn -0.932841 0.342020 0.113267
vn -0.773352 0.342020 -0.533806
vn -0.878628 0.342020 -0.333220
vn -0.932841 0.342020 -0.113267
vn -0.623131 0.342020 -0.703370
vn -0.773352 0.342020 -0.533806
vn -0.878628 0.342020 -0.333220
vn -0.436697 0.342020 -0.832057
vn -0.623131 0.342020 -0.703370
vn -0.773352 0.342020 -0.533806
vn -0.224883 0.342020 -0.912387
vn -0.436697 0.342020 -0.832057
vn -0.623131 0.342020 -0.703370
vn -0.224883 0.342020 -0.912387
vn -0.436697 0.342020 -0.832057
vn -0.224883 0.342020 -0.912387
f 39//39 18//18 17//17
f 39//39 19//19 18//18
f 40//40 17//17 16//16
f 40//40 39//39 17//17
f 41//41 38//38 19//19
f 41//41 19//19 39//39
f 42//42 15//15 14//14
f 42//42 16//16 15//15
f 42//42 40//40 16//16
f 43//43 41//41 39//39
f 43//43 39//39 40//40
f 44//44 36//36 37//37
f 44//44 37//37 38//38
f 44//44 38//38 41//41
f 45//45 14//14 13//13
f 45//45 42//42 14//14
f 46//46 43//43 40//40
f 46//46 40//40 42//42
f 47//47 35//35 36//36
f 47//47 41//41 43//43
f 47//47 44//44 41//41
f 47//47 36//36 44//44
f 47//47 43//43 46//46
f 48//48 12//12 11//11
f 48//48 13//13 12//12
f 48//48 45//45 13//13
f 49//49 45//45 48//48
f 49//49 42//42 45//45
f 49//49 46//46 42//42
f 50//50 33//33 34//34
f 50//50 34//34 35//35
f 50//50 47//47 46//46
f 50//50 35//35 47//47
f 51//51 11//11 10//10
f 51//51 48//48 11//11
f 52//52 49//49 48//48
f 53//53 32//32 33//33
f 53//53 46//46 49//49
f 53//53 33//33 50//50
f 53//53 50//50 46//46
f 54//54 10//10 9//9
f 54//54 51//51 10//10
f 55//55 48//48 51//51
f 55//55 52//52 48//48
f 56//56 30//30 31//31
f 56//56 31//31 32//32
f 56//56 32//32 53//53
f 56//56 49//49 52//52
f 56//56 53//53 49//49
f 57//57 8//8 7//7
f 57//57 9//9 8//8
f 57//57 54//54 9//9
f 58//58 55//55 51//51
f 58//58 51//51 54//54
f 59//59 52//52 55//55
f 59//59 29//29 30//30
f 59//59 56//56 52//52
f 59//59 30//30 56//56
f 60//60 7//7 6//6
f 60//60 57//57 7//7
f 61//61 58//58 54//54
f 61//61 54//54 57//57
f 62//62 59//59 55//55
f 62//62 28//28 29//29
f 62//62 58//58 61//61
f 62//62 29//29 59//59
f 62//62 55//55 58//58
f 63//63 5//5 4//4
f 63//63 6//6 5//5
f 63//63 60//60 6//6
f 64//64 57//57 60//60
f 64//64 61//61 57//57
f 65//65 28//28 62//62
f 65//65 26//26 27//27
f 65//65 27//27 28//28
f 65//65 61//61 64//64
f 65//65 62//62 61//61
f 66//66 63//63 4//4
f 66//66 4//4 3//3
f 67//67 60//60 63//63
f 67//67 64//64 60//60
f 67//67 63//63 66//66
f 68//68 25//25 26//26
f 68//68 65//65 64//64
f 68//68 26//26 65//65
f 69//69 2//2 1//1
f 69//69 3//3 2//2
f 69//69 66//66 3//3
f 70//70 67//67 66//66
f 71//71 23//23 24//24
f 71//71 24//24 25//25
f 71//71 64//64 67//67
f 71//71 25//25 68//68
f 71//71 68//68 64//64
f 72//72 69//69 1//1
f 72//72 1//1 20//20
f 72//72 70//70 66//66
f 72//72 66//66 69//69
f 73//73 22//22 23//23
f 73//73 23//23 71//71
f 73//73 67//67 70//70
f 73//73 71//71 67//67
f 74//74 20//20 21//21
f 74//74 21//21 22//22
f 74//74 72//72 20//20
f 74//74 22//22 73//73
f 74//74 70//70 72//72
f 74//74 73//73 70//70
v -0.000000 0.014000 -0.011904
v -0.000000 0.000000 -0.017000
v 0.000000 0.014000 0.011904
v 0.002067 0.014000 0.011724
v 0.004072 0.014000 0.011186
v 0.005952 0.014000 0.010310
v 0.007652 0.014000 0.009119
v 0.009119 0.014000 0.007652
v 0.010310 0.014000 0.005952
v 0.011186 0.014000 0.004072
v 0.011724 0.014000 0.002067
v 0.011904 0.014000 0.000000
v 0.011724 0.014000 -0.002067
v 0.011186 0.014000 -0.004072
v 0.010310 0.014000 -0.005952
v 0.009119 0.014000 -0.007652
v 0.007652 0.014000 -0.009119
v 0.005952 0.014000 -0.010310
v 0.004072 0.014000 -0.011186
v 0.002067 0.014000 -0.011724
v 0.000000 0.000000 0.017000
v 0.002952 0.000000 0.016742
v 0.005814 0.000000 0.015975
v 0.008500 0.000000 0.014722
v 0.010927 0.000000 0.013023
v 0.013023 0.000000 0.010927
v 0.014722 0.000000 0.008500
v 0.015975 0.000000 0.005814
v 0.016742 0.000000 0.002952
v 0.017000 0.000000 0.000000
v 0.016742 0.000000 -0.002952
v 0.015975 0.000000 -0.005814
v 0.014722 0.000000 -0.008500
v 0.013023 0.000000 -0.010927
v 0.010927 0.000000 -0.013023
v 0.008500 0.000000 -0.014722
v 0.005814 0.000000 -0.015975
v 0.002952 0.000000 -0.016742
v 0.003154 0.010500 -0.012795
v 0.006124 0.010500 -0.011669
v 0.003459 0.007000 -0.014032
v 0.008739 0.010500 -0.009864
v 0.006716 0.007000 -0.012797
v 0.003764 0.003500 -0.015269
v 0.010846 0.010500 -0.007486
v 0.009584 0.007000 -0.010818
v 0.007308 0.003500 -0.013925
v 0.012322 0.010500 -0.004673
v 0.011894 0.007000 -0.008210
v 0.010428 0.003500 -0.011771
v 0.013082 0.010500 -0.001588
v 0.013513 0.007000 -0.005125
v 0.012942 0.003500 -0.008933
v 0.013082 0.010500 0.001588
v 0.014347 0.007000 -0.001742
v 0.014704 0.003500 -0.005577
v 0.012322 0.010500 0.004673
v 0.014347 0.007000 0.001742
v 0.015611 0.003500 -0.001896
v 0.010846 0.010500 0.007486
v 0.013513 0.007000 0.005125
v 0.015611 0.003500 0.001896
v 0.008739 0.010500 0.009864
v 0.011894 0.007000 0.008210
v 0.014704 0.003500 0.005577
v 0.006124 0.010500 0.011669
v 0.009584 0.007000 0.010818
v 0.012942 0.003500 0.008933
v 0.003154 0.010500 0.012795
v 0.006716 0.007000 0.012797
v 0.010428 0.003500 0.011771
v 0.003459 0.007000 0.014032
v 0.007308 0.003500 0.013925
v 0.003764 0.003500 0.015269
vn -0.000000 0.342020 -0.939693
vn -0.000000 0.342020 -0.939693
vn 0.000000 0.342020 0.939693
vn 0.163176 0.342020 0.925417
vn 0.321394 0.342020 0.883022
vn 0.469846 0.342020 0.813798
vn 0.604023 0.342020 0.719846
vn 0.719846 0.342020 0.604023
vn 0.813798 0.342020 0.469846
vn 0.883022 0.342020 0.321394
vn 0.925417 0.342020 0.163176
vn 0.939693 0.342020 -0.000000
vn 0.925417 0.342020 -0.163176
vn 0.883022 0.342020 -0.321394
vn 0.813798 0.342020 -0.469846
vn 0.719846 0.342020 -0.604023
vn 0.604023 0.342020 -0.719846
vn 0.469846 0.342020 -0.813798
vn 0.321394 0.342020 -0.883022
vn 0.163176 0.342020 -0.925417
vn 0.000000 0.342020 0.939693
vn 0.163176 0.342020 0.925417
vn 0.321394 0.342020 0.883022
vn 0.469846 0.342020 0.813798
vn 0.604023 0.342020 0.719846
vn 0.719846 0.342020 0.604023
vn 0.813798 0.342020 0.469846
vn 0.883022 0.342020 0.321394
vn 0.925417 0.342020 0.163176
vn 0.939693 0.342020 -0.000000
vn 0.925417 0.342020 -0.163176
vn 0.883022 0.342020 -0.321394
vn 0.813798 0.342020 -0.469846
vn 0.719846 0.342020 -0.604023
vn 0.604023 0.342020 -0.719846
vn 0.469846 0.342020 -0.813798
vn 0.321394 0.342020 -0.883022
vn 0.163176 0.342020 -0.925417
vn 0.224883 0.342020 -0.912387
vn 0.436697 0.342020 -0.832057
vn 0.224883 0.342020 -0.912387
vn 0.623131 0.342020 -0.703370
vn 0.436697 0.342020 -0.832057
vn 0.224883 0.342020 -0.912387
vn 0.773352 0.342020 -0.533806
vn 0.623131 0.342020 -0.703370
vn 0.436697 0.342020 -0.832057
vn 0.878628 0.342020 -0.333220
vn 0.773352 0.342020 -0.533806
vn 0.623131 0.342020 -0.703370
vn 0.932841 0.342020 -0.113267
vn 0.878628 0.342020 -0.333220
vn 0.773352 0.342020 -0.533806
vn 0.932841 0.342020 0.113267
vn 0.932841 0.342020 -0.113267
vn 0.878628 0.342020 -0.333220
vn 0.878628 0.342020 0.333220
vn 0.932841 0.342020 0.113267
vn 0.932841 0.342020 -0.113267
vn 0.773352 0.342020 0.533806
vn 0.878628 0.342020 0.333220
vn 0.932841 0.342020 0.113267
vn 0.623131 0.342020 0.703370
vn 0.773352 0.342020 0.533806
vn 0.878628 0.342020 0.333220
vn 0.436697 0.342020 0.832057
vn 0.623131 0.342020 0.703370
vn 0.773352 0.342020 0.533806
vn 0.224883 0.342020 0.912387
vn 0.436697 0.342020 0.832057
vn 0.623131 0.342020 0.703370
vn 0.224883 0.342020 0.912387
vn 0.436697 0.342020 0.832057
vn 0.224883 0.342020 0.912387
f 113//113 94//94 93//93
f 113//113 75//75 94//94
f 114//114 93//93 92//92
f 114//114 113//113 93//93
f 115//115 76//76 75//75
f 115//115 75//75 113//113
f 116//116 91//91 90//90
f 116//116 92//92 91//91
f 116//116 114//114 92//92
f 117//117 115//115 113//113
f 117//117 113//113 114//114
f 118//118 76//76 115//115
f 118//118 111//111 112//112
f 118//118 112//112 76//76
f 119//119 90//90 89//89
f 119//119 116//116 90//90
f 120//120 117//117 114//114
f 120//120 114//114 116//116
f 121//121 110//110 111//111
f 121//121 115//115 117//117
f 121//121 118//118 115//115
f 121//121 111//111 118//118
f 122//122 88//88 87//87
f 122//122 89//89 88//88
f 122//122 119//119 89//89
f 123//123 120//120 116//116
f 123//123 116//116 119//119
f 124//124 121//121 117//117
f 124//124 108//108 109//109
f 124//124 109//109 110//110
f 124//124 120//120 123//123
f 124//124 117//117 120//120
f 124//124 110//110 121//121
f 125//125 122//122 87//87
f 125//125 87//87 86//86
f 126//126 119//119 122//122
f 126//126 123//123 119//119
f 127//127 107//107 108//108
f 127//127 124//124 123//123
f 127//127 123//123 126//126
f 127//127 108//108 124//124
f 128//128 86//86 85//85
f 128//128 125//125 86//86
f 129//129 122//122 125//125
f 129//129 126//126 122//122
f 130//130 127//127 126//126
f 130//130 105//105 106//106
f 130//130 106//106 107//107
f 130//130 107//107 127//127
f 131//131 84//84 83//83
f 131//131 85//85 84//84
f 131//131 128//128 85//85
f 132//132 129//129 125//125
f 132//132 125//125 128//128
f 133//133 129//129 132//132
f 133//133 126//126 129//129
f 133//133 105//105 130//130
f 133//133 104//104 105//105
f 133//133 130//130 126//126
f 134//134 83//83 82//82
f 134//134 131//131 83//83
f 135//135 128//128 131//131
f 135//135 132//132 128//128
f 136//136 103//103 104//104
f 136//136 133//133 132//132
f 136//136 104//104 133//133
f 137//137 81//81 80//80
f 137//137 82//82 81//81
f 137//137 134//134 82//82
f 138//138 135//135 131//131
f 138//138 131//131 134//134
f 138//138 134//134 137//137
f 139//139 135//135 138//138
f 139//139 101//101 102//102
f 139//139 102//102 103//103
f 139//139 103//103 136//136
f 139//139 132//132 135//135
f 139//139 136//136 132//132
f 140//140 80//80 79//79
f 140//140 137//137 80//80
f 141//141 138//138 137//137
f 142//142 100//100 101//101
f 142//142 101//101 139//139
f 142//142 139//139 138//138
f 143//143 78//78 77//77
f 143//143 79//79 78//78
f 143//143 140//140 79//79
f 144//144 137//137 140//140
f 144//144 141//141 137//137
f 145//145 98//98 99//99
f 145//145 99//99 100//100
f 145//145 138//138 141//141
f 145//145 100//100 142//142
f 145//145 142//142 138//138
f 146//146 143//143 77//77
f 146//146 77//77 95//95
f 146//146 144//144 140//140
f 146//146 140//140 143//143
f 147//147 97//97 98//98
f 147//147 98//98 145//145
f 147//147 141//141 144//144
f 147//147 145//145 141//141
f 148//148 95//95 96//96
f 148//148 96//96 97//97
f 148//148 97//97 147//147
f 148//148 144//144 146//146
f 148//148 147//147 144//144
f 148//148 146//146 95//95
v 0.000000 0.014000 0.011904
v 0.002067 0.014000 0.011724
v 0.004072 0.014000 0.011186
v 0.005952 0.014000 0.010310
v 0.007652 0.014000 0.009119
v 0.009119 0.014000 0.007652
v 0.010310 0.014000 0.005952
v 0.011186 0.014000 0.004072
v 0.011724 0.014000 0.002067
v 0.011904 0.014000 0.000000
v 0.011724 0.014000 -0.002067
v 0.011186 0.014000 -0.004072
v 0.010310 0.014000 -0.005952
v 0.009119 0.014000 -0.007652
v 0.007652 0.014000 -0.009119
v 0.005952 0.014000 -0.010310
v 0.004072 0.014000 -0.011186
v 0.002067 0.014000 -0.011724
v -0.000000 0.014000 -0.011904
v -0.002067 0.014000 -0.011724
v -0.004072 0.014000 -0.011186
v -0.005952 0.014000 -0.010310
v -0.007652 0.014000 -0.009119
v -0.009119 0.014000 -0.007652
v -0.010310 0.014000 -0.005952
v -0.011186 0.014000 -0.004072
v -0.011724 0.014000 -0.002067
v -0.011904 0.014000 -0.000000
v -0.011724 0.014000 0.002067
v -0.011186 0.014000 0.004072
v -0.010310 0.014000 0.005952
v -0.009119 0.014000 0.007652
v -0.007652 0.014000 0.009119
v -0.005952 0.014000 0.010310
v -0.004072 0.014000 0.011186
v -0.002067 0.014000 0.011724
vn 0.000000 1.000000 0.000000
vn 0.000000 1.000000 0.000000
vn 0.000000 1.000000 0.000000
vn 0.000000 1.000000 0.000000
vn 0.000000 1.000000 0.000000
vn 0.000000 1.000000 0.000000
vn 0.000000 1.000000 0.000000
vn 0.000000 1.000000 0.000000
vn 0.000000 1.000000 0.000000
vn 0.000000 1.000000 0.000000
vn 0.000000 1.000000 0.000000
vn 0.000000 1.000000 0.000000
vn 0.000000 1.000000 0.000000
vn 0.000000 1.000000 0.000000
vn 0.000000 1.000000 0.000000
vn 0.000000 1.000000 0.000000
vn 0.000000 1.000000 0.000000
vn 0.000000 1.000000 0.000000
vn 0.000000 1.000000 0.000000
vn 0.000000 1.000000 0.000000
vn 0.000000 1.000000 0.000000
vn 0.000000 1.000000 0.000000
vn 0.000000 1.000000 0.000000
vn 0.000000 1.000000 0.000000
vn 0.000000 1.000000 0.000000
vn 0.000000 1.000000 0.000000
vn 0.000000 1.000000 0.000000
vn 0.000000 1.000000 0.000000
vn 0.000000 1.000000 0.000000
vn 0.000000 1.000000 0.000000
vn 0.000000 1.000000 0.000000
vn 0.000000 1.000000 0.000000
vn 0.000000 1.000000 0.000000
vn 0.000000 1.000000 0.000000
vn 0.000000 1.000000 0.000000
vn 0.000000 1.000000 0.000000
f 173//173 171//171 172//172
f 176//176 174//174 175//175
f 166//166 167//167 168//168
f 166//166 168//168 169//169
f 178//178 173//173 174//174
f 178//178 176//176 177//177
f 178//178 174//174 176//176
f 165//165 169//169 170//170
f 165//165 166//166 169//169
f 180//180 178//178 179//179
f 180//180 173//173 178//178
f 163//163 164//164 165//165
f 181//181 170//170 171//171
f 181//181 171//171 173//173
f 181//181 173//173 180//180
f 162//162 165//165 170//170
f 162//162 163//163 165//165
f 159//159 160//160 161//161
f 159//159 161//161 162//162
f 149//149 181//181 182//182
f 149//149 182//182 183//183
f 149//149 183//183 184//184
f 149//149 170//170 181//181
f 149//149 162//162 170//170
f 155//155 149//149 150//150
f 155//155 150//150 151//151
f 155//155 151//151 152//152
f 155//155 156//156 157//157
f 155//155 157//157 158//158
f 155//155 158//158 159//159
f 155//155 159//159 162//162
f 155//155 162//162 149//149
f 154//154 155//155 152//152
f 154//154 152//152 153//153
v -0.000000 0.000000 -0.017000
v -0.002952 0.000000 -0.016742
v -0.005814 0.000000 -0.015975
v -0.008500 0.000000 -0.014722
v -0.010927 0.000000 -0.013023
v -0.013023 0.000000 -0.010927
v -0.014722 0.000000 -0.008500
v -0.015975 0.000000 -0.005814
v -0.016742 0.000000 -0.002952
v -0.017000 0.000000 -0.000000
v -0.016742 0.000000 0.002952
v -0.015975 0.000000 0.005814
v -0.014722 0.000000 0.008500
v -0.013023 0.000000 0.010927
v -0.010927 0.000000 0.013023
v -0.008500 0.000000 0.014722
v -0.005814 0.000000 0.015975
v -0.002952 0.000000 0.016742
v 0.000000 0.000000 0.017000
v 0.002952 0.000000 0.016742
v 0.005814 0.000000 0.015975
v 0.008500 0.000000 0.014722
v 0.010927 0.000000 0.013023
v 0.013023 0.000000 0.010927
v 0.014722 0.000000 0.008500
v 0.015975 0.000000 0.005814
v 0.016742 0.000000 0.002952
v 0.017000 0.000000 0.000000
v 0.016742 0.000000 -0.002952
v 0.015975 0.000000 -0.005814
v 0.014722 0.000000 -0.008500
v 0.013023 0.000000 -0.010927
v 0.010927 0.000000 -0.013023
v 0.008500 0.000000 -0.014722
v 0.005814 0.000000 -0.015975
v 0.002952 0.000000 -0.016742
vn -0.000000 -1.000000 -0.000000
vn -0.000000 -1.000000 -0.000000
vn -0.000000 -1.000000 -0.000000
vn -0.000000 -1.000000 -0.000000
vn -0.000000 -1.000000 -0.000000
vn -0.000000 -1.000000 -0.000000
vn -0.000000 -1.000000 -0.000000
vn -0.000000 -1.000000 -0.000000
vn -0.000000 -1.000000 -0.000000
vn -0.000000 -1.000000 -0.000000
vn -0.000000 -1.000000 -0.000000
vn -0.000000 -1.000000 -0.000000
vn -0.000000 -1.000000 -0.000000
vn -0.000000 -1.000000 -0.000000
vn -0.000000 -1.000000 -0.000000
vn -0.000000 -1.000000 -0.000000
vn -0.000000 -1.000000 -0.000000
vn -0.000000 -1.000000 -0.000000
vn -0.000000 -1.000000 -0.000000
vn -0.000000 -1.000000 -0.000000
vn -0.000000 -1.000000 -0.000000
vn -0.000000 -1.000000 -0.000000
vn -0.000000 -1.000000 -0.000000
vn -0.000000 -1.000000 -0.000000
vn -0.000000 -1.000000 -0.000000
vn -0.000000 -1.000000 -0.000000
vn -0.000000 -1.000000 -0.000000
vn -0.000000 -1.000000 -0.000000
vn -0.000000 -1.000000 -0.000000
vn -0.000000 -1.000000 -0.000000
vn -0.000000 -1.000000 -0.000000
vn -0.000000 -1.000000 -0.000000
vn -0.000000 -1.000000 -0.000000
vn -0.000000 -1.000000 -0.000000
vn -0.000000 -1.000000 -0.000000
vn -0.000000 -1.000000 -0.000000
f 191//191 190//190 189//189
f 187//187 189//189 188//188
f 187//187 191//191 189//189
f 194//194 193//193 192//192
f 185//185 187//187 186//186
f 220//220 191//191 187//187
f 220//220 187//187 185//185
f 197//197 196//196 195//195
f 217//217 219//219 218//218
f 217//217 220//220 219//219
f 199//199 195//195 194//194
f 199//199 198//198 197//197
f 199//199 194//194 192//192
f 199//199 197//197 195//195
f 215//215 217//217 216//216
f 215//215 220//220 217//217
f 201//201 200//200 199//199
f 204//204 192//192 191//191
f 204//204 202//202 201//201
f 204//204 203//203 202//202
f 204//204 201//201 199//199
f 204//204 199//199 192//192
f 211//211 213//213 212//212
f 211//211 214//214 213//213
f 211//211 215//215 214//214
f 209//209 211//211 210//210
f 209//209 215//215 211//211
f 206//206 205//205 204//204
f 207//207 215//215 209//209
f 207//207 191//191 220//220
f 207//207 220//220 215//215
f 207//207 204//204 191//191
f 207//207 206//206 204//204
f 208//208 207//207 209//209
